<svg width="101" height="91" viewBox="0 0 101 91" fill="none" xmlns="http://www.w3.org/2000/svg">
<path d="M101 5.05556C101 2.26347 98.7391 0 95.95 0H5.05C2.26099 0 0 2.26347 0 5.05556V85.9444C0 88.7366 2.26099 91 5.05 91H95.95C98.7391 91 101 88.7366 101 85.9444V5.05556ZM10.1 60.6667H27.351C31.2474 69.5943 40.1459 75.8333 50.5 75.8333C60.854 75.8333 69.7526 69.5943 73.6492 60.6667H90.9V80.8889H10.1V60.6667ZM10.1 10.1111H90.9V50.5556H65.65C65.65 58.9321 58.8673 65.7222 50.5 65.7222C42.1327 65.7222 35.35 58.9321 35.35 50.5556H10.1V10.1111ZM70.7 30.3333H55.55V15.1667H45.45V30.3333H30.3L50.5 53.0833L70.7 30.3333Z" fill="white"/>
</svg>
