<svg width="938" height="585" viewBox="0 0 938 585" fill="currentColor" xmlns="http://www.w3.org/2000/svg">
<path d="M451.667 3.66677C409.8 13.1334 379.533 38.2001 359 80.3335C349.933 98.7335 345.8 111 340.733 133.667C337.667 147.4 337.133 152.867 337.133 172.333C337.133 189.933 337.533 196.867 339.4 203.133C340.6 207.667 341.667 211.8 341.667 212.333C341.667 212.867 337.8 209.667 333 205.267C317.667 191.133 298.2 183.4 278.333 183.267C265.667 183.133 260.733 185.133 252.6 193.4C240.067 206.2 231.8 226.467 227.667 254.733C224.867 273.4 225.533 311.933 229 336.867C232.467 362.067 241.533 412.6 244.467 423.267C247.667 435 247.133 438.733 241.667 441C233.267 444.467 222.067 438.867 212.6 426.067C205.667 416.867 200.467 406.2 194.333 389C188.2 371.667 185.133 366.6 179.667 364.2C175.667 362.6 175.267 361.8 174.467 354.733C173.133 343.8 168.867 328.733 164.867 320.733C153.933 299.133 131.267 288.467 115.667 297.533C110.2 300.733 107.933 303.533 98.5999 318.467C94.8666 324.333 92.5999 326.6 86.7333 329.267C82.0666 331.533 77.3999 335.133 73.6666 339.667C68.9999 345.267 65.3999 347.8 55.6666 352.467C40.1999 359.8 31.7999 367.133 26.8666 377.667C24.7333 382.067 22.9999 386.467 22.9999 387.4C22.9999 388.467 19.6666 392.867 15.6666 397.4C6.73327 407.267 -0.3334 420.733 0.8666 425.533C1.2666 427.267 3.13327 430.6 4.99993 432.733C6.73327 434.867 7.93327 437 7.39993 437.533C5.53327 439.267 10.4666 438.2 16.0666 435.533L21.7999 432.733L25.7999 436.467L29.6666 440.2L36.8666 436.467C42.0666 433.8 45.1333 430.867 48.7333 425.4C51.5333 421.267 53.6666 417.533 53.6666 416.867C53.6666 413 75.5333 411.933 90.3333 415C100.6 417.133 103 419.267 103 425.933C103 428.467 103.933 432.6 105.133 435.4C106.333 438.067 109.667 447.133 112.6 455.4C129.8 504.333 144.467 526.467 165.933 536.2C184.867 544.867 224.867 552.2 248.867 551.533C262.467 551 264.467 550.6 272.467 546.733C287.667 539.267 305.133 521.133 315.533 502.2C322.467 489.4 326.333 478.067 329.667 460.333C334.467 434.467 334.733 434.467 335 460.333C335.267 473.533 335.8 506.867 336.2 534.333L337 584.333L340.733 584.733C343 585 344.6 584.467 345.133 583.267C345.533 582.2 345.133 540.867 344.467 491.533C343 400.6 341.267 366.467 335.667 325.933C334.6 318.067 333.533 310.867 333.533 309.933C333.4 309 332.467 312.867 331.533 318.333C330.333 324.467 329.133 345.8 328.333 373C327 424.6 324.6 443.667 316.2 474.333C308.333 502.6 290.867 527 271.933 536.2C264.067 540.067 245.267 543.667 233.133 543.667C222.2 543.667 200.867 540.333 189.133 536.867C177.4 533.4 168.067 528.733 160.6 522.6C146.2 510.867 129.267 481.4 117.267 447.667C108.867 423.933 109 425 112.067 425C114.2 425 114.733 423.8 115.267 418.067C115.933 411.933 116.733 410.467 121.4 406.333C124.333 403.8 131.667 399.667 137.533 397.267C143.8 394.6 153 389.133 159.667 384.2C175 372.6 176.867 371.933 181.667 376.733C183.933 379 185.8 382.733 186.333 385.8C189.667 405.267 195.267 417.4 207.933 433.667C215.533 443.267 226.6 449 237.667 449C246.6 449 254.2 445.667 254.733 441.267C255 439.667 252.467 426.2 249.133 411.267C245.8 396.467 242.467 381.133 241.667 377.133C239.533 365.667 235 318.2 234.067 297.533C232.2 254.733 241.933 214.733 257.667 200.467C265.533 193.4 276.333 189.933 288.333 190.6C299.933 191.267 304.467 193.4 321 205.133C332.467 213.267 336.333 217.4 339.8 225.667C341 228.6 343.4 231.133 346.2 232.467C349.133 233.933 351.133 236.2 352.333 239.533C356.067 250.333 365.4 267.533 372.467 277C382.2 289.8 405.667 312.6 416.067 319.4C438.2 333.667 484.467 342.867 534.333 342.867C567.667 343 578.867 341.133 597 332.467C646.467 309 678.067 256.2 672.333 206.6C670.6 191.667 659.667 136.6 656.733 127.933C654.467 121 655.267 111.267 659.133 102.6C662.467 94.8668 675.533 82.2001 684.733 77.6668C704.333 68.2001 718.733 73.1335 739.8 96.8668C762.333 122.2 766.467 130.867 790.333 203C799.267 230.067 808.6 256.467 811 261.533C817.4 275 826.733 284.733 831.533 282.867C841.667 279 847.667 235.533 842.333 204.733C839.933 191 834.067 171.667 827.667 155.8C825.133 149.533 823 143.8 823 143C823 141 844.867 123.8 852.2 120.067C858.733 116.733 865 116.2 870.2 118.6C873 119.8 875 123.667 880.467 137.533C891.133 164.6 903.8 203.933 907.8 222.333C914.2 251.4 912.733 284.733 904.067 312.867C897.533 334.067 885.667 351.933 875.4 356.067C867.133 359.267 851.133 361.4 841 360.6C812.6 358.067 795.133 347.667 778.333 323C774.067 316.6 765.667 305.933 759.667 299.267C739.8 276.6 736.867 271.8 732.867 254.867C730.467 244.333 725 233.4 718.333 225.667L713.8 220.333L716.467 230.333C724.733 260.733 734.733 283.533 746.6 297.933L751.133 303.533L749.8 314.6C747.267 335.267 743.133 478.733 743 545.133C743 582.867 743.267 584.6 749.133 580.333C751.4 578.733 751.667 572.467 752.467 467.533C753 406.333 753.8 353.933 754.2 351C754.6 348.067 755.533 339.667 756.333 332.333C758.2 314.867 758.867 311.667 760.733 311.667C761.667 311.667 765.4 317 769 323.4C777.667 338.467 793.8 355.133 804.867 360.333C826.867 370.467 866.2 372.067 882.067 363.267C896.467 355.267 912.333 322.2 918.467 287.667C920.467 275.933 921.133 245.8 919.667 234.733C917.533 220.067 911.4 199.667 895 154.333C886.333 130.467 882.733 123.133 876.6 116.6C871.133 110.867 871.933 109 880.067 109C882.6 109 886.2 107.933 888.067 106.467C897.4 99.9335 910.2 99.4001 923.267 105.133C928.333 107.4 933.4 108.867 934.333 108.467C936.6 107.667 938.2 97.2668 937 91.6668C935.267 83.8001 923.267 73.0001 916.333 73.0001C914.733 73.0001 910.067 70.6001 905.933 67.6668C899.8 63.4001 896.467 62.0668 889 61.0001C869.267 58.2001 858.067 59.5335 848.867 65.8001L843.8 69.2668L837 67.0001C830.867 64.8668 829.933 64.8668 826.2 66.7335C820.067 69.9335 804.733 85.8001 801.533 92.4668C799 97.8001 798.867 99.2668 800.067 106.067C800.867 110.333 803.667 117.8 806.2 122.6C808.867 127.4 812.333 136.333 813.8 142.467C815.4 148.6 818.867 158.2 821.667 163.667C828.6 177.667 831.933 188.733 834.333 205C836.867 223.267 836.867 238.867 834.2 250.733C831.533 262.467 827.267 272.6 825.8 270.867C822.2 267 803.933 220.733 790.6 181.667C775 136.067 769.933 123.8 757.8 103.267C741.8 76.2001 722.733 63.9335 698.467 65.2668C686.467 65.8001 676.2 70.6001 666.467 80.2001C660.2 86.3335 652.333 98.6001 652.333 102.2C652.333 102.867 651.8 105 651 107C649.8 110.333 649.267 109.8 643 97.2668C623.8 59.6668 579.667 23.1334 537 9.66677C509.133 0.866766 474.733 -1.53323 451.667 3.66677ZM495 12.3334C527.267 16.6001 555.133 24.6001 570.6 33.8001C582.467 41.0001 607.8 60.7335 617.4 70.2001C627.933 80.7335 632.6 88.0668 640.733 106.333C656.067 141.267 666.2 195.4 663 225.533C660.867 244.733 655.667 267 651 276.6C641 296.733 615.8 314.467 580.333 326.2C557 333.933 549 335 526.333 333.133C495.8 330.6 459.667 325.4 446.333 321.667C421.533 314.467 405.4 304.2 390.067 285.667C369.533 260.867 356.067 233.4 346.733 197C343.133 183 342.867 180.333 343.533 166.333C344.6 144.467 349.8 124.467 363.133 91.9335C375.933 60.3335 396.2 38.8668 427.667 23.2668C453.267 10.6001 466.733 8.46677 495 12.3334ZM888.733 68.2001C898.333 70.4668 901.667 73.0001 895 73.0001C892.467 73.0001 888.6 73.9335 886.6 75.0001C884.6 76.0668 882.2 76.6001 881.267 76.2001C878.467 75.2668 867 82.2001 867 84.8668C867 88.4668 868.333 89.0001 872.2 87.0001C874.2 86.0668 882.733 83.5335 891.133 81.5335C906.6 77.9335 906.6 77.9335 914.2 80.3335C924.333 83.5335 929.667 88.6001 929.667 94.8668C929.667 97.5335 929.4 99.6668 929 99.6668C928.733 99.6668 923.667 98.0668 918.067 96.2001C905.533 91.9335 899.267 92.3335 885.8 98.2001C880.467 100.6 874.333 102.333 871.133 102.333C864.467 102.333 862.2 105.667 866.733 108.733C868.333 109.8 869.667 111.133 869.667 111.667C869.667 112.2 864.6 113 858.467 113.133L847.267 113.667L833.133 123.267C825.4 128.467 818.733 132.333 818.333 131.8C818.067 131.133 815.267 123.667 812.2 115C806.867 99.6668 806.733 99.1335 808.867 94.8668C809.933 92.3335 811.667 90.3335 812.6 90.3335C813.533 90.3335 817.4 86.8668 821.267 82.7335C827.8 75.6668 828.867 75.1335 833.8 75.2668C843.533 75.6668 857.667 81.8001 857.667 85.6668C857.667 89.2668 852.333 89.2668 845.133 85.8001C832.6 79.6668 830.2 81.5335 831.4 96.2001C832.067 103.933 831.8 106.333 830.333 107.667C829.267 108.6 828.733 109.8 829.133 110.467C830.467 112.733 835.133 111.667 838.333 108.467C841.133 105.667 841.533 104.333 840.733 98.6001C839.8 90.8668 841.267 89.4001 846.867 92.3335C853 95.4001 857 94.8668 860.867 90.2001C865.8 84.3335 865.267 82.0668 857.667 77.6668C849.8 73.0001 850.467 71.5335 861.667 68.4668C871 65.9335 879 65.9335 888.733 68.2001ZM138.467 305.667C145.933 307.8 151.933 313.4 156.2 321.933C159.667 329 165.267 349.533 166.467 359.667L167.267 367.267L161.533 371.933C158.333 374.467 148.467 380.6 139.8 385.667C131 390.733 120.467 397.533 116.467 400.733L109.267 406.733L106.733 403.133C103.4 398.6 102.2 398.733 100.467 403.8C99.1333 407.533 98.7333 407.8 95.3999 406.867C93.2666 406.2 83.9333 405.8 74.3333 405.8C59.3999 405.933 55.5333 406.467 45.6666 409.667C30.8666 414.467 25.9333 417 19.7999 423.267L14.8666 428.333L12.1999 425.133C8.59993 420.867 8.99993 417 13.5333 410.733C23.3999 397.133 44.8666 387.667 70.8666 385.8C83.3999 384.867 86.9999 383.4 86.9999 379.667C86.9999 377.4 86.0666 377 80.0666 377C76.3333 377 64.5999 378.6 54.0666 380.6C33.9333 384.333 31.1333 384.067 32.9999 378.333C34.0666 375 40.9999 366.733 44.3333 365C46.0666 364.067 47.6666 364.467 50.1999 366.467C53.6666 369.267 56.3333 368.867 56.3333 365.667C56.3333 363.133 60.7333 362.067 64.8666 363.667C72.7333 366.6 76.0666 364.467 71.3999 359.4C69.3999 357.133 69.3999 356.867 71.7999 354.2C76.0666 349.4 78.5999 348.733 82.8666 351C85.1333 352.067 88.0666 353 89.6666 353C94.3333 353 102.067 348.2 108.733 341C116.467 332.867 119.533 332.733 124.2 340.067C127.667 345.267 132.867 347.667 135.267 345.267C136.333 344.2 134.867 341.4 130.6 335.4C127.133 330.733 123.667 325.933 122.6 324.467C121 322.2 120.6 322.067 116.867 324.067C114.6 325.267 109.933 329.533 106.333 333.8C98.8666 342.467 92.8666 345.667 87.6666 343.667C85.7999 343 84.3333 341.8 84.3333 341.267C84.3333 338.6 89.9333 333.133 93.3999 332.333C98.4666 331.267 103.533 326.333 110.467 315.4C113.667 310.333 117.667 305.667 119.4 305C123.8 303.267 131.133 303.4 138.467 305.667ZM44.4666 420.6C42.0666 425.133 35.2666 430.6 32.7333 430.067C28.3333 429.267 30.1999 425.8 36.9999 422.067C44.8666 417.8 46.1999 417.533 44.4666 420.6Z" fill="currentColor"/>
<path d="M513.667 37.9334C503 45.6667 498.6 49.6667 495.934 54.2001C493.667 58.0667 493.667 58.2001 496.467 59.8001C498.867 61.0001 499.8 60.7334 502.2 57.9334C507 52.4667 517.134 45.0001 521.8 43.6667C525.267 42.6001 527 42.8667 530.6 45.1334C535.534 48.2001 540.734 48.0667 541.4 44.8667C541.667 43.4001 538.867 41.1334 532.467 37.8001C527.4 35.1334 522.734 33.0001 521.934 33.0001C521.267 33.0001 517.534 35.2667 513.667 37.9334Z" fill="currentColor"/>
<path d="M529 56.8668C520.066 62.2001 512.333 76.6001 512.333 87.8001C512.333 97.0001 521.4 110.6 531.933 117.133C537.933 120.867 545.666 119.933 556.333 114.2C565.4 109.4 566.866 107.933 571.533 99.1335C577.8 87.2668 575.666 75.1334 566.2 68.8668C559.933 64.7334 537.933 54.3334 535.4 54.3334C534.066 54.3334 531.133 55.4001 529 56.8668ZM554.733 69.8001C556.333 70.0668 560.066 72.6001 563 75.1334C569.933 81.4001 570.2 86.7334 563.933 97.0001C560.333 103.133 558.2 105 550.866 108.867C542.733 112.867 541.533 113.133 537.266 111.8C529.133 109 519 95.8001 519 87.9334C519 83.1334 521.4 75.6668 523.933 73.0001C527.8 68.8668 542.466 67.2668 554.733 69.8001Z" fill="currentColor"/>
<path d="M542.6 78.0667C539.533 81.4001 539.8 85.8001 543 89.0001C546.067 92.0667 546.6 92.2001 552.2 90.2001C557.4 88.3334 559.667 84.7334 557.667 81.0001C554.733 75.5334 546.333 73.9334 542.6 78.0667Z" fill="currentColor"/>
<path d="M387 82.3334C387 83.1334 383 87.5334 378.2 92.3334C371.667 98.7334 369.533 101.667 369.933 103.933C370.467 108.067 376.733 108.333 377.4 104.333C378.067 101 383.533 95 389 91.8C393.133 89.4 393.267 89.4 398.067 91.9334C403.667 94.7334 408.333 93.5334 408.333 89.2667C408.333 85.5334 405.533 83.6667 400.2 83.6667C397.4 83.6667 394.733 83 394.333 82.3334C393.267 80.6 387 80.6 387 82.3334Z" fill="currentColor"/>
<path d="M390.733 107.667C378.2 111.4 366.2 125.267 363.667 138.734C362.2 146.2 364.067 154.734 368.467 161.4C375.533 172.067 386.733 174.6 399.267 168.2C409.4 163 417.933 153.8 420.733 144.867C425 131 423.267 119.934 415.533 112.734C409 106.734 400.067 104.867 390.733 107.667ZM405 114.867C415.933 119.534 417.667 131.8 409.533 148.334C403 161.8 392.6 167.667 382.867 163.534C377.8 161.534 371.533 153.267 370.467 147C368.6 137.134 375 125.267 384.2 121.267C386.867 120.2 390.733 117.934 392.733 116.2C397.133 112.467 398.733 112.334 405 114.867Z" fill="currentColor"/>
<path d="M384.467 139.133C380.867 143.667 381 144.467 385 147.133C389.8 150.333 395 147.933 395 142.6C395 135.267 389 133.267 384.467 139.133Z" fill="currentColor"/>
<path d="M521 169.267C520.6 170.2 520.466 173.667 520.733 176.733L521 182.6L506.733 187.667C498.866 190.467 490.6 194.2 488.466 196.067C486.2 197.933 482.333 200.067 479.933 200.867C473 203.133 446.6 206.067 444.866 204.867C444.066 204.2 442.333 201 441 197.667C439.533 193.667 437.933 191.667 436.333 191.667C431 191.667 431.933 196.733 439.533 210.2C444.466 218.867 445.4 219.533 448.066 216.2C449.8 214.067 452.333 213.133 458.333 212.6C466.466 211.933 500.866 201.4 509.933 196.867C512.6 195.533 516.733 194.2 519.133 194.067C523.133 193.667 523.8 194.2 527.666 201C531.933 208.733 536.6 211 537.4 205.667C538.066 201 526.333 168.333 523.933 167.933C522.6 167.667 521.4 168.2 521 169.267Z" fill="currentColor"/>
</svg>
